<svg xmlns="http://www.w3.org/2000/svg" xmlns:xlink="http://www.w3.org/1999/xlink" width="129" zoomAndPan="magnify" viewBox="0 0 96.75 33.749998" height="45" preserveAspectRatio="xMidYMid meet" version="1.0"><defs><g/></defs><g fill="#ffffff" fill-opacity="1"><g transform="translate(3.581804, 19.728857)"><g><path d="M 4.46875 0.09375 C 2.9375 0.09375 1.820312 -0.195312 1.125 -0.78125 C 0.4375 -1.375 0.09375 -2.273438 0.09375 -3.484375 C 0.09375 -4.679688 0.4375 -5.570312 1.125 -6.15625 C 1.820312 -6.75 2.9375 -7.046875 4.46875 -7.046875 C 5.851562 -7.046875 6.90625 -6.789062 7.625 -6.28125 C 8.351562 -5.78125 8.742188 -4.976562 8.796875 -3.875 L 6.15625 -3.875 C 6.113281 -4.207031 5.957031 -4.453125 5.6875 -4.609375 C 5.414062 -4.773438 5.007812 -4.859375 4.46875 -4.859375 C 3.957031 -4.859375 3.570312 -4.789062 3.3125 -4.65625 C 3.0625 -4.53125 2.890625 -4.363281 2.796875 -4.15625 C 2.710938 -3.945312 2.671875 -3.722656 2.671875 -3.484375 C 2.671875 -3.234375 2.710938 -3 2.796875 -2.78125 C 2.890625 -2.570312 3.0625 -2.398438 3.3125 -2.265625 C 3.570312 -2.140625 3.957031 -2.078125 4.46875 -2.078125 C 5.007812 -2.078125 5.414062 -2.160156 5.6875 -2.328125 C 5.957031 -2.503906 6.113281 -2.753906 6.15625 -3.078125 L 8.796875 -3.078125 C 8.742188 -1.984375 8.359375 -1.179688 7.640625 -0.671875 C 6.921875 -0.160156 5.863281 0.09375 4.46875 0.09375 Z M 4.46875 0.09375 "/></g></g></g><g fill="#ffffff" fill-opacity="1"><g transform="translate(13.13747, 19.728857)"><g><path d="M 0.203125 0 L 0.203125 -6.9375 L 2.78125 -6.9375 L 2.78125 -2.1875 L 7.34375 -2.1875 L 7.34375 0 Z M 0.203125 0 "/></g></g></g><g fill="#ffffff" fill-opacity="1"><g transform="translate(21.234531, 19.728857)"><g><path d="M 4.46875 0.09375 C 2.9375 0.09375 1.820312 -0.195312 1.125 -0.78125 C 0.4375 -1.375 0.09375 -2.273438 0.09375 -3.484375 C 0.09375 -4.679688 0.4375 -5.570312 1.125 -6.15625 C 1.820312 -6.75 2.9375 -7.046875 4.46875 -7.046875 C 5.988281 -7.046875 7.09375 -6.75 7.78125 -6.15625 C 8.476562 -5.570312 8.828125 -4.679688 8.828125 -3.484375 C 8.828125 -2.273438 8.476562 -1.375 7.78125 -0.78125 C 7.09375 -0.195312 5.988281 0.09375 4.46875 0.09375 Z M 4.46875 -2.078125 C 4.976562 -2.078125 5.359375 -2.144531 5.609375 -2.28125 C 5.867188 -2.414062 6.039062 -2.585938 6.125 -2.796875 C 6.207031 -3.003906 6.25 -3.234375 6.25 -3.484375 C 6.25 -3.722656 6.207031 -3.945312 6.125 -4.15625 C 6.039062 -4.363281 5.867188 -4.53125 5.609375 -4.65625 C 5.359375 -4.789062 4.976562 -4.859375 4.46875 -4.859375 C 3.957031 -4.859375 3.570312 -4.789062 3.3125 -4.65625 C 3.0625 -4.53125 2.890625 -4.363281 2.796875 -4.15625 C 2.710938 -3.945312 2.671875 -3.722656 2.671875 -3.484375 C 2.671875 -3.234375 2.710938 -3 2.796875 -2.78125 C 2.890625 -2.570312 3.0625 -2.398438 3.3125 -2.265625 C 3.570312 -2.140625 3.957031 -2.078125 4.46875 -2.078125 Z M 4.46875 -2.078125 "/></g></g></g><g fill="#ffffff" fill-opacity="1"><g transform="translate(30.819971, 19.728857)"><g><path d="M 4.5625 0.09375 C 3.03125 0.09375 1.921875 -0.195312 1.234375 -0.78125 C 0.546875 -1.375 0.203125 -2.273438 0.203125 -3.484375 L 0.203125 -6.9375 L 2.78125 -6.9375 L 2.78125 -3.484375 C 2.78125 -3.234375 2.820312 -3 2.90625 -2.78125 C 2.988281 -2.570312 3.160156 -2.398438 3.421875 -2.265625 C 3.679688 -2.140625 4.0625 -2.078125 4.5625 -2.078125 C 5.070312 -2.078125 5.453125 -2.144531 5.703125 -2.28125 C 5.960938 -2.414062 6.132812 -2.585938 6.21875 -2.796875 C 6.300781 -3.003906 6.34375 -3.234375 6.34375 -3.484375 L 6.34375 -6.9375 L 8.921875 -6.9375 L 8.921875 -3.484375 C 8.921875 -2.273438 8.570312 -1.375 7.875 -0.78125 C 7.1875 -0.195312 6.082031 0.09375 4.5625 0.09375 Z M 4.5625 0.09375 "/></g></g></g><g fill="#ffffff" fill-opacity="1"><g transform="translate(40.603858, 19.728857)"><g><path d="M 0.203125 0 L 0.203125 -6.9375 L 5.359375 -6.9375 C 5.773438 -6.9375 6.175781 -6.863281 6.5625 -6.71875 C 6.957031 -6.582031 7.304688 -6.375 7.609375 -6.09375 C 7.921875 -5.8125 8.164062 -5.453125 8.34375 -5.015625 C 8.519531 -4.578125 8.609375 -4.0625 8.609375 -3.46875 C 8.609375 -2.882812 8.519531 -2.375 8.34375 -1.9375 C 8.164062 -1.5 7.921875 -1.132812 7.609375 -0.84375 C 7.304688 -0.5625 6.957031 -0.347656 6.5625 -0.203125 C 6.175781 -0.0664062 5.773438 0 5.359375 0 Z M 2.78125 -2.1875 L 4.5625 -2.1875 C 4.695312 -2.1875 4.847656 -2.191406 5.015625 -2.203125 C 5.191406 -2.222656 5.351562 -2.269531 5.5 -2.34375 C 5.65625 -2.414062 5.78125 -2.539062 5.875 -2.71875 C 5.976562 -2.894531 6.03125 -3.144531 6.03125 -3.46875 C 6.03125 -3.789062 5.976562 -4.039062 5.875 -4.21875 C 5.78125 -4.394531 5.65625 -4.519531 5.5 -4.59375 C 5.351562 -4.675781 5.191406 -4.722656 5.015625 -4.734375 C 4.847656 -4.753906 4.695312 -4.765625 4.5625 -4.765625 L 2.78125 -4.765625 Z M 2.78125 -2.1875 "/></g></g></g><g fill="#ffffff" fill-opacity="1"><g transform="translate(49.971006, 19.728857)"><g><path d="M 0.203125 0 L 0.203125 -6.9375 L 3.375 -6.9375 L 5.515625 -2.96875 L 7.65625 -6.9375 L 10.828125 -6.9375 L 10.828125 0 L 8.25 0 L 8.25 -3.296875 L 6.359375 0 L 4.671875 0 L 2.78125 -3.296875 L 2.78125 0 Z M 0.203125 0 "/></g></g></g><g fill="#ffffff" fill-opacity="1"><g transform="translate(61.660023, 19.728857)"><g><path d="M 0.09375 0 L 2.96875 -6.9375 L 6.8125 -6.9375 L 9.6875 0 L 6.84375 0 L 6.375 -1.25 L 3.40625 -1.25 L 2.9375 0 Z M 4.09375 -3.03125 L 5.6875 -3.03125 L 4.890625 -5.15625 Z M 4.09375 -3.03125 "/></g></g></g><g fill="#ffffff" fill-opacity="1"><g transform="translate(72.0988, 19.728857)"><g><path d="M 3.078125 0 L 3.078125 -4.765625 L 0.09375 -4.765625 L 0.09375 -6.9375 L 8.625 -6.9375 L 8.625 -4.765625 L 5.65625 -4.765625 L 5.65625 0 Z M 3.078125 0 "/></g></g></g><g fill="#ffffff" fill-opacity="1"><g transform="translate(81.485793, 19.728857)"><g><path d="M 0.203125 0 L 0.203125 -6.9375 L 7.546875 -6.9375 L 7.546875 -4.953125 L 2.78125 -4.953125 L 2.78125 -4.3125 L 7.546875 -4.3125 L 7.546875 -2.625 L 2.78125 -2.625 L 2.78125 -1.984375 L 7.546875 -1.984375 L 7.546875 0 Z M 0.203125 0 "/></g></g></g><g fill="#ffffff" fill-opacity="1"><g transform="translate(89.790866, 19.728857)"><g/></g></g></svg>